<svg xmlns="http://www.w3.org/2000/svg" width="24" height="24" viewBox="0 0 24 24" fill="none" stroke="#4CAF50" stroke-width="2" stroke-linecap="round" stroke-linejoin="round">
  <path d="M22 12.5v3.5a2 2 0 0 1-2 2H4a2 2 0 0 1-2-2v-3.5"></path>
  <path d="M14 7.5v-3a1 1 0 0 0-1-1H11a1 1 0 0 0-1 1v3"></path>
  <path d="M15.3 10.8a2.5 2.5 0 0 0-3.16-3.17"></path>
  <path d="M7.8 10.3a2.5 2.5 0 1 0 3.4 3.4"></path>
  <path d="M14.25 16.5h-4.5c-.83 0-1.5-.67-1.5-1.5s.67-1.5 1.5-1.5h4.5c.83 0 1.5.67 1.5 1.5s-.67 1.5-1.5 1.5Z"></path>
  <path d="m4 20 3.5-3.5"></path>
  <path d="m16.5 16.5 3.5 3.5"></path>
</svg>